# xmcd CD database file
#
# Track frame offsets:
#	150
#	6202
#	46243
#	62808
#	78420
#	108388
#	123075
#	147764
#	158784
#	164901
#	180191
#
# Disc length: 2798 seconds
#
# Revision: 0
# Processed by: cddbd v1.5.2PL0 Copyright (c) Steve Scherf et al.
# Submitted via: CDex 1.70beta2
#
DISCID=870aec0b
DTITLE=Juan Pablo II - Recitate da Claucia Cardinale - Canto del Dio nascosto [CD3)
DYEAR=2005
DGENRE=New Age
TTITLE0=Sulla tua bianca tomba
TTITLE1=Stanislao
TTITLE2=Quando ancora non riuscivo a distinguere tanti profili
TTITLE3=Comincia il colloquio con me stesso - Comincia il colloquio con Dio
TTITLE4=Rive piene di silenzio
TTITLE5=Primo istante del corpo adorato
TTITLE6=Oliveti - Deserto della Giudea
TTITLE7=Il nome
TTITLE8=Il negro
TTITLE9=Ispirazione
TTITLE10=Canto del sole inesauribile
EXTD=YEAR: 2005
EXTT0=
EXTT1=
EXTT2=
EXTT3=
EXTT4=
EXTT5=
EXTT6=
EXTT7=
EXTT8=
EXTT9=
EXTT10=
PLAYORDER=
